<svg width="500" height="500" viewBox="0 0 500 500" fill="none" xmlns="http://www.w3.org/2000/svg"><rect x="50" y="150" width="100" height="100" rx="12" fill="#C4C4C4"/><rect x="50" y="370" width="100" height="100" rx="12" fill="#C4C4C4"/><rect x="350" y="370" width="100" height="100" rx="12" fill="#C4C4C4"/><rect x="350" y="150" width="100" height="100" rx="12" fill="#C4C4C4"/><circle cx="250" cy="80" r="50" fill="#C4C4C4"/><path d="M100 260l-2.887 5h5.774L100 260zm0 100l2.887-5h-5.774l2.887 5zm-.5-95.5v91h1v-91h-1zM400 260l-2.887 5h5.774L400 260zm0 100l2.887-5h-5.774l2.887 5zm-.5-95.5v91h1v-91h-1zM100 145.375l5.752-.503-3.312-4.729-2.44 5.232zM187.653 84l-5.751.503 3.311 4.73 2.44-5.233zm-83.68 59.204l80.281-56.213-.574-.82-80.281 56.214.574.819zm295.68 2.171l-2.44-5.232-3.311 4.729 5.751.503zM312 84l2.44 5.233 3.312-4.73L312 84zm84.254 58.385l-80.281-56.213-.574.819 80.281 56.213.574-.819zM215.508 76h-2.344V64.625h2.344V76zm4.109-8.453l.071.976c.604-.755 1.414-1.132 2.429-1.132.896 0 1.563.263 2 .789.438.526.662 1.312.672 2.36V76h-2.258v-5.406c0-.48-.104-.826-.312-1.04-.209-.218-.555-.327-1.039-.327-.636 0-1.112.27-1.43.812V76h-2.258v-8.453h2.125zm9.594-2.078v2.078h1.445v1.656h-1.445v4.219c0 .312.06.536.18.672.119.135.349.203.687.203.25 0 .471-.018.664-.055v1.711a4.648 4.648 0 01-1.367.203c-1.583 0-2.391-.8-2.422-2.398v-4.555h-1.234v-1.656h1.234v-2.078h2.258zm6.594 10.687c-1.24 0-2.25-.38-3.032-1.14-.776-.76-1.164-1.774-1.164-3.04v-.218c0-.85.164-1.607.493-2.274.328-.671.791-1.187 1.39-1.546.604-.365 1.292-.547 2.063-.547 1.156 0 2.065.364 2.726 1.093.667.73 1 1.763 1 3.102v.922h-5.383c.073.552.292.995.657 1.328.369.333.836.5 1.398.5.87 0 1.55-.315 2.039-.945l1.11 1.242a3.425 3.425 0 01-1.375 1.125 4.553 4.553 0 01-1.922.398zm-.258-6.937c-.448 0-.813.15-1.094.453-.276.302-.453.734-.531 1.297h3.14v-.18c-.01-.5-.145-.885-.406-1.156-.26-.276-.63-.414-1.109-.414zm9.773.445a6.122 6.122 0 00-.812-.062c-.854 0-1.414.289-1.68.867V76h-2.258v-8.453h2.133l.063 1.008c.453-.776 1.08-1.164 1.882-1.164.25 0 .485.033.704.101l-.032 2.172zM248.797 76h-2.266V64h2.266v12zm5.758.156c-1.24 0-2.25-.38-3.032-1.14-.776-.76-1.164-1.774-1.164-3.04v-.218c0-.85.164-1.607.493-2.274.328-.671.791-1.187 1.39-1.546.604-.365 1.292-.547 2.063-.547 1.156 0 2.065.364 2.726 1.093.667.73 1 1.763 1 3.102v.922h-5.383c.073.552.292.995.657 1.328.369.333.836.5 1.398.5.87 0 1.55-.315 2.039-.945l1.11 1.242a3.425 3.425 0 01-1.375 1.125 4.553 4.553 0 01-1.922.398zm-.258-6.937c-.448 0-.813.15-1.094.453-.276.302-.453.734-.531 1.297h3.14v-.18c-.01-.5-.145-.885-.406-1.156-.26-.276-.63-.414-1.109-.414zm4.672 2.492c0-1.318.294-2.367.883-3.148.593-.782 1.403-1.172 2.429-1.172.823 0 1.503.307 2.039.921V64h2.266v12h-2.039l-.109-.898c-.563.703-1.287 1.054-2.172 1.054-.995 0-1.795-.39-2.399-1.172-.599-.786-.898-1.877-.898-3.273zm2.258.164c0 .792.138 1.398.414 1.82.276.422.677.633 1.203.633.698 0 1.19-.294 1.476-.883V70.11c-.281-.588-.768-.882-1.461-.882-1.088 0-1.632.882-1.632 2.648zm6.781-.164c0-1.297.307-2.341.922-3.133.619-.791 1.453-1.187 2.5-1.187.927 0 1.648.317 2.164.953l.094-.797h2.046v8.172c0 .74-.169 1.383-.507 1.93a3.214 3.214 0 01-1.415 1.25c-.609.286-1.322.43-2.14.43-.62 0-1.224-.126-1.813-.376-.588-.245-1.033-.562-1.336-.953l1-1.375c.563.63 1.245.945 2.047.945.599 0 1.065-.161 1.399-.484.333-.318.5-.77.5-1.36v-.453c-.521.589-1.206.883-2.055.883-1.016 0-1.838-.396-2.469-1.187-.625-.797-.937-1.852-.937-3.164v-.094zm2.258.164c0 .766.153 1.367.461 1.805.307.432.729.648 1.265.648.688 0 1.18-.258 1.477-.773V70c-.302-.516-.789-.773-1.461-.773-.542 0-.969.22-1.281.664-.308.442-.461 1.104-.461 1.984zm11.101 4.281c-1.239 0-2.25-.38-3.031-1.14-.776-.76-1.164-1.774-1.164-3.04v-.218c0-.85.164-1.607.492-2.274.328-.671.792-1.187 1.391-1.546.604-.365 1.291-.547 2.062-.547 1.156 0 2.065.364 2.727 1.093.666.73 1 1.763 1 3.102v.922h-5.383c.073.552.292.995.656 1.328.37.333.836.5 1.399.5.869 0 1.549-.315 2.039-.945l1.109 1.242a3.419 3.419 0 01-1.375 1.125 4.55 4.55 0 01-1.922.398zm-.258-6.937c-.448 0-.812.15-1.093.453-.276.302-.454.734-.532 1.297h3.141v-.18c-.01-.5-.146-.885-.406-1.156-.261-.276-.63-.414-1.11-.414zm9.774.445a6.124 6.124 0 00-.813-.062c-.854 0-1.414.289-1.679.867V76h-2.258v-8.453h2.133l.062 1.008c.453-.776 1.081-1.164 1.883-1.164.25 0 .484.033.703.101l-.031 2.172zm-56.617 28.629c-.106.902-.44 1.6-1.002 2.092-.559.488-1.303.732-2.233.732-1.008 0-1.816-.361-2.426-1.084-.605-.722-.908-1.69-.908-2.9v-.82c0-.794.141-1.49.422-2.092.285-.602.688-1.063 1.207-1.383.52-.324 1.121-.486 1.805-.486.906 0 1.633.254 2.18.761.546.504.865 1.203.955 2.098h-1.131c-.098-.68-.311-1.172-.639-1.477-.324-.304-.779-.457-1.365-.457-.719 0-1.283.266-1.693.797-.407.532-.61 1.287-.61 2.268v.826c0 .926.193 1.662.58 2.209.387.547.928.82 1.623.82.625 0 1.104-.14 1.436-.422.336-.285.558-.779.668-1.482h1.131zm2.548 2.707h-1.084v-9h1.084v9zm4.372.117c-.86 0-1.559-.281-2.098-.844-.539-.566-.809-1.322-.809-2.267v-.2c0-.628.119-1.189.358-1.681a2.812 2.812 0 011.008-1.16 2.533 2.533 0 011.406-.422c.824 0 1.465.271 1.922.814.457.543.685 1.32.685 2.332v.452h-4.295c.016.625.198 1.13.545 1.517.352.383.797.574 1.336.574.383 0 .707-.078.973-.234.265-.156.498-.363.697-.621l.662.516c-.531.816-1.328 1.224-2.39 1.224zm-.135-5.683c-.438 0-.805.16-1.102.48-.297.317-.48.762-.551 1.336h3.176v-.082c-.031-.55-.179-.977-.445-1.277-.266-.305-.625-.457-1.078-.457zm7.781 5.566c-.062-.125-.113-.348-.152-.668-.504.523-1.106.785-1.805.785-.625 0-1.139-.176-1.541-.527a1.73 1.73 0 01-.598-1.348c0-.66.25-1.172.75-1.535.504-.367 1.211-.55 2.121-.55h1.055v-.499c0-.379-.113-.68-.34-.902-.226-.227-.56-.34-1.002-.34-.386 0-.711.098-.972.293-.262.195-.393.432-.393.709h-1.09c0-.316.112-.621.334-.914.227-.297.531-.531.914-.703a3.098 3.098 0 011.272-.258c.73 0 1.303.184 1.717.55.414.364.628.866.644 1.507v2.918c0 .582.074 1.044.223 1.388V101h-1.137zm-1.799-.826c.34 0 .662-.088.967-.264.305-.176.525-.404.662-.685v-1.301h-.85c-1.328 0-1.992.388-1.992 1.166 0 .34.114.605.34.797.227.191.518.287.873.287zm7.477-4.541a3.254 3.254 0 00-.533-.041c-.711 0-1.194.302-1.448.908v4.5h-1.084v-6.34h1.055l.018.733c.355-.567.859-.85 1.511-.85.211 0 .371.027.481.082v1.008zm2.179 5.367h-1.084v-6.34h1.084V101zm-1.171-8.022c0-.175.052-.324.158-.445.109-.12.269-.181.48-.181.211 0 .371.06.481.181.109.121.164.27.164.445a.62.62 0 01-.164.44c-.11.117-.27.176-.481.176-.211 0-.371-.059-.48-.176a.63.63 0 01-.158-.44zm3.937 1.682l.035.797c.485-.61 1.117-.914 1.899-.914 1.34 0 2.015.756 2.027 2.267V101h-1.084v-4.195c-.004-.457-.109-.795-.316-1.014-.204-.219-.522-.328-.955-.328-.352 0-.661.094-.926.281a1.903 1.903 0 00-.621.738V101h-1.084v-6.34h1.025zm5.338 3.117c0-.988.228-1.773.686-2.355.457-.586 1.062-.879 1.816-.879.773 0 1.377.273 1.81.82l.053-.703h.99v6.188c0 .82-.244 1.466-.732 1.939-.484.473-1.137.709-1.957.709-.457 0-.904-.098-1.342-.293-.437-.195-.771-.463-1.002-.803l.563-.65c.465.574 1.033.861 1.705.861.527 0 .937-.148 1.23-.445.297-.297.446-.715.446-1.254v-.545c-.434.5-1.026.75-1.776.75-.742 0-1.344-.299-1.804-.896-.458-.598-.686-1.412-.686-2.444zm1.09.123c0 .715.146 1.278.439 1.688.293.406.703.609 1.231.609.683 0 1.185-.31 1.506-.931V96.37c-.332-.605-.83-.908-1.495-.908-.527 0-.939.205-1.236.615-.297.41-.445 1.018-.445 1.822zM234.547 115h-1.131l-4.295-6.574V115h-1.131v-8.531h1.131l4.307 6.603v-6.603h1.119V115zm4.459.117c-.86 0-1.559-.281-2.098-.844-.539-.566-.808-1.322-.808-2.267v-.199c0-.629.119-1.19.357-1.682a2.81 2.81 0 011.008-1.16 2.535 2.535 0 011.406-.422c.824 0 1.465.271 1.922.814.457.543.686 1.321.686 2.332v.452h-4.295c.015.625.197 1.13.545 1.517.351.383.796.574 1.335.574.383 0 .707-.078.973-.234.266-.156.498-.363.697-.621l.662.516c-.531.816-1.328 1.224-2.39 1.224zm-.135-5.683c-.437 0-.805.16-1.101.48-.297.316-.481.762-.551 1.336h3.176v-.082c-.032-.551-.18-.977-.446-1.277-.265-.305-.625-.457-1.078-.457zm5.338-2.309v1.535h1.184v.838h-1.184v3.932c0 .254.053.445.158.574.106.125.285.187.539.187.125 0 .297-.023.516-.07V115a3.15 3.15 0 01-.832.117c-.485 0-.85-.146-1.096-.439-.246-.293-.369-.709-.369-1.248v-3.932h-1.154v-.838h1.154v-1.535h1.084zm8.068 6.381l1.219-4.846h1.084l-1.846 6.34h-.879l-1.541-4.805-1.5 4.805h-.878l-1.84-6.34h1.078l1.248 4.746 1.476-4.746h.873l1.506 4.846zm3.123-1.735c0-.621.121-1.179.364-1.675a2.765 2.765 0 011.019-1.149 2.797 2.797 0 011.494-.404c.864 0 1.561.299 2.092.896.535.598.803 1.393.803 2.385v.076c0 .618-.119 1.172-.358 1.664-.234.489-.572.87-1.013 1.143-.438.273-.942.41-1.512.41-.859 0-1.557-.299-2.092-.896-.531-.598-.797-1.389-.797-2.373v-.077zm1.09.129c0 .704.162 1.268.487 1.694.328.426.765.638 1.312.638.551 0 .988-.214 1.313-.644.324-.434.486-1.039.486-1.817 0-.695-.166-1.257-.498-1.687a1.563 1.563 0 00-1.313-.65c-.535 0-.966.212-1.295.638-.328.426-.492 1.035-.492 1.828zm9.106-2.267a3.182 3.182 0 00-.534-.041c-.71 0-1.193.303-1.447.908v4.5h-1.084v-6.34h1.055l.018.733c.355-.567.859-.85 1.511-.85.211 0 .371.027.481.082v1.008zm2.771 2.431l-.679.709V115h-1.084v-9h1.084v5.443l.58-.697 1.974-2.086h1.319l-2.467 2.649 2.754 3.691h-1.272l-2.209-2.936zM80.836 193.656h-4.11l-.78 2.344h-2.493l4.234-11.375h2.172L84.117 196h-2.492l-.79-2.344zm-3.477-1.898h2.844l-1.43-4.258-1.414 4.258zm7.32-.063c0-1.328.295-2.377.883-3.148.594-.771 1.407-1.156 2.438-1.156.906 0 1.628.346 2.164 1.039l.148-.883h1.985v11.703H90.03v-3.977c-.52.589-1.203.883-2.047.883-1.005 0-1.807-.39-2.406-1.172-.599-.781-.898-1.877-.898-3.289zm2.258.164c0 .808.141 1.422.422 1.844.287.422.688.633 1.204.633.692 0 1.182-.276 1.468-.828v-3.492c-.281-.532-.765-.797-1.453-.797-.52 0-.924.211-1.21.633-.287.421-.43 1.091-.43 2.007zm12.204 3.282c-.558.677-1.329 1.015-2.313 1.015-.906 0-1.599-.26-2.078-.781-.474-.521-.716-1.284-.727-2.289v-5.539h2.258v5.461c0 .88.401 1.32 1.203 1.32.766 0 1.292-.266 1.579-.797v-5.984h2.265V196h-2.125l-.062-.859zm6.273.859h-2.266v-8.453h2.266V196zm-2.398-10.641c0-.338.112-.617.336-.836.229-.218.539-.328.929-.328.386 0 .693.11.922.328.229.219.344.498.344.836 0 .344-.117.625-.352.844-.229.219-.534.328-.914.328s-.687-.109-.922-.328c-.229-.219-.343-.5-.343-.844zm9.015 4.305a6.064 6.064 0 00-.812-.062c-.854 0-1.414.289-1.68.867V196h-2.258v-8.453h2.133l.063 1.008c.453-.776 1.08-1.164 1.882-1.164.25 0 .485.033.703.101l-.031 2.172zm4.828 6.492c-1.239 0-2.25-.38-3.031-1.14-.776-.761-1.164-1.774-1.164-3.039v-.219c0-.849.164-1.607.492-2.274.328-.672.792-1.187 1.391-1.546.604-.365 1.292-.547 2.062-.547 1.157 0 2.065.364 2.727 1.093.667.73 1 1.763 1 3.102v.922h-5.383c.073.552.292.995.656 1.328.37.333.836.5 1.399.5.87 0 1.549-.315 2.039-.945l1.109 1.242a3.419 3.419 0 01-1.375 1.125 4.559 4.559 0 01-1.922.398zm-.257-6.937c-.448 0-.813.151-1.094.453-.276.302-.453.734-.531 1.297h3.14v-.18c-.01-.5-.146-.885-.406-1.156-.26-.276-.63-.414-1.109-.414zm9.773.445a6.065 6.065 0 00-.813-.062c-.854 0-1.414.289-1.679.867V196h-2.258v-8.453h2.133l.062 1.008c.453-.776 1.081-1.164 1.883-1.164.25 0 .485.033.703.101l-.031 2.172zM70.273 399.625l2.922 8.25 2.907-8.25h3.078V411h-2.352v-3.109l.234-5.368-3.07 8.477h-1.61l-3.062-8.469.235 5.36V411H67.21v-11.375h3.062zm14.696 11.531c-1.24 0-2.25-.38-3.031-1.14-.776-.761-1.165-1.774-1.165-3.039v-.219c0-.849.165-1.607.493-2.274.328-.672.791-1.187 1.39-1.546.604-.365 1.292-.547 2.063-.547 1.156 0 2.065.364 2.726 1.093.667.73 1 1.763 1 3.102v.922h-5.382c.072.552.291.995.656 1.328.37.333.836.5 1.398.5.87 0 1.55-.315 2.04-.945l1.109 1.242a3.42 3.42 0 01-1.375 1.125 4.558 4.558 0 01-1.922.398zm-.258-6.937c-.448 0-.813.151-1.094.453-.276.302-.453.734-.531 1.297h3.14v-.18c-.01-.5-.145-.885-.406-1.156-.26-.276-.63-.414-1.11-.414zm9.773.445a6.07 6.07 0 00-.812-.062c-.854 0-1.414.289-1.68.867V411h-2.258v-8.453h2.133l.063 1.008c.453-.776 1.08-1.164 1.882-1.164.25 0 .485.033.704.101l-.032 2.172zm4.454 4.672c.416 0 .755-.115 1.015-.344.261-.229.396-.534.406-.914h2.118a2.924 2.924 0 01-.469 1.578 3.125 3.125 0 01-1.266 1.11 3.96 3.96 0 01-1.765.39c-1.209 0-2.162-.383-2.86-1.148-.698-.771-1.047-1.834-1.047-3.188v-.148c0-1.302.347-2.341 1.04-3.117.692-.776 1.643-1.164 2.85-1.164 1.058 0 1.905.302 2.54.906.641.599.966 1.398.977 2.398h-2.118c-.01-.437-.145-.791-.406-1.062-.26-.276-.604-.414-1.031-.414-.526 0-.925.192-1.195.578-.266.38-.399 1-.399 1.859v.235c0 .869.133 1.494.399 1.875.265.38.669.57 1.21.57zm7.031-5.867c.599-.719 1.351-1.078 2.258-1.078 1.833 0 2.763 1.065 2.789 3.195V411h-2.258v-5.352c0-.484-.104-.841-.313-1.07-.208-.234-.554-.351-1.039-.351-.661 0-1.14.255-1.437.765V411h-2.258v-12h2.258v4.469zM117.617 411a2.517 2.517 0 01-.226-.758c-.547.61-1.258.914-2.133.914-.828 0-1.516-.239-2.063-.718a2.32 2.32 0 01-.812-1.813c0-.896.331-1.583.992-2.063.667-.479 1.628-.721 2.883-.726h1.039v-.484c0-.391-.102-.704-.305-.938-.198-.234-.513-.352-.945-.352-.38 0-.68.092-.899.274-.213.182-.32.432-.32.75h-2.258c0-.49.151-.943.453-1.359.303-.417.73-.743 1.282-.977.552-.24 1.172-.359 1.859-.359 1.042 0 1.867.263 2.477.789.614.521.921 1.255.921 2.203v3.664c.006.802.118 1.409.336 1.82V411h-2.281zm-1.867-1.57c.333 0 .641-.073.922-.219.281-.151.489-.352.625-.602v-1.453h-.844c-1.13 0-1.732.391-1.805 1.172l-.007.133c0 .281.099.513.297.695.197.183.468.274.812.274zm7.625-6.883l.07.976c.604-.755 1.414-1.132 2.43-1.132.896 0 1.563.263 2 .789.437.526.661 1.312.672 2.359V411h-2.258v-5.406c0-.479-.104-.826-.312-1.039-.209-.219-.555-.328-1.039-.328-.636 0-1.112.27-1.43.812V411h-2.258v-8.453h2.125zm9.594-2.078v2.078h1.445v1.656h-1.445v4.219c0 .312.06.536.179.672.12.135.349.203.688.203.25 0 .471-.018.664-.055v1.711a4.628 4.628 0 01-1.367.203c-1.584 0-2.391-.799-2.422-2.398v-4.555h-1.234v-1.656h1.234v-2.078h2.258zm241.359 6.742c-.088 1.224-.542 2.187-1.359 2.891-.813.703-1.886 1.054-3.219 1.054-1.458 0-2.607-.489-3.445-1.468-.834-.985-1.25-2.334-1.25-4.047v-.696c0-1.093.192-2.057.578-2.89.385-.834.935-1.472 1.648-1.914.719-.448 1.552-.672 2.5-.672 1.313 0 2.37.351 3.172 1.054.802.704 1.266 1.691 1.391 2.961H372c-.057-.734-.263-1.265-.617-1.593-.349-.334-.883-.5-1.602-.5-.781 0-1.367.281-1.758.843-.385.558-.583 1.425-.593 2.602v.859c0 1.229.185 2.128.554 2.696.375.567.964.851 1.766.851.724 0 1.263-.164 1.617-.492.36-.333.565-.846.617-1.539h2.344zm6.453 2.93c-.557.677-1.328 1.015-2.312 1.015-.907 0-1.599-.26-2.078-.781-.474-.521-.717-1.284-.727-2.289v-5.539h2.258v5.461c0 .88.401 1.32 1.203 1.32.766 0 1.292-.266 1.578-.797v-5.984h2.266V411h-2.125l-.063-.859zm8.469-1.477c0-.276-.138-.492-.414-.648-.271-.162-.708-.305-1.313-.43-2.01-.422-3.015-1.276-3.015-2.563 0-.75.31-1.375.93-1.875.624-.505 1.44-.757 2.445-.757 1.073 0 1.929.252 2.57.757.646.506.969 1.162.969 1.969h-2.258c0-.323-.104-.588-.312-.797-.209-.213-.534-.32-.977-.32-.38 0-.674.086-.883.258a.814.814 0 00-.312.656c0 .25.117.453.351.609.24.151.641.284 1.203.399a9.393 9.393 0 011.422.375c1.193.437 1.789 1.195 1.789 2.273 0 .771-.33 1.396-.992 1.875-.661.474-1.515.711-2.562.711-.709 0-1.339-.125-1.891-.375-.547-.255-.977-.601-1.289-1.039a2.429 2.429 0 01-.469-1.43h2.141c.021.402.169.709.445.922.276.214.646.321 1.11.321.432 0 .757-.081.976-.243a.771.771 0 00.336-.648zm6.359-8.195v2.078h1.446v1.656h-1.446v4.219c0 .312.06.536.18.672.12.135.349.203.688.203.25 0 .471-.018.664-.055v1.711a4.634 4.634 0 01-1.368.203c-1.583 0-2.39-.799-2.421-2.398v-4.555h-1.235v-1.656h1.235v-2.078h2.257zm2.118 6.226c0-.838.161-1.586.484-2.242a3.548 3.548 0 011.391-1.523c.609-.36 1.315-.539 2.117-.539 1.14 0 2.07.349 2.789 1.047.724.697 1.127 1.645 1.211 2.843l.015.578c0 1.297-.362 2.339-1.086 3.125-.724.782-1.695 1.172-2.914 1.172-1.218 0-2.192-.39-2.922-1.172-.723-.781-1.085-1.843-1.085-3.187v-.102zm2.257.164c0 .802.151 1.417.454 1.844.302.422.734.633 1.296.633.547 0 .974-.208 1.282-.625.307-.422.461-1.094.461-2.016 0-.786-.154-1.396-.461-1.828-.308-.432-.74-.648-1.297-.648-.552 0-.979.216-1.281.648-.303.427-.454 1.091-.454 1.992zm9.258-4.312l.07.945c.599-.734 1.409-1.101 2.43-1.101 1.089 0 1.836.429 2.242 1.289.594-.86 1.44-1.289 2.539-1.289.917 0 1.599.268 2.047.804.448.532.672 1.334.672 2.407V411h-2.265v-5.391c0-.479-.094-.828-.282-1.047-.187-.223-.518-.335-.992-.335-.677 0-1.146.322-1.406.968l.008 5.805h-2.258v-5.383c0-.489-.096-.844-.289-1.062-.193-.219-.521-.328-.985-.328-.64 0-1.104.265-1.39.796V411h-2.258v-8.453h2.117zm15.633 8.609c-1.24 0-2.25-.38-3.031-1.14-.776-.761-1.164-1.774-1.164-3.039v-.219c0-.849.164-1.607.492-2.274.328-.672.792-1.187 1.39-1.546.605-.365 1.292-.547 2.063-.547 1.156 0 2.065.364 2.727 1.093.666.73 1 1.763 1 3.102v.922h-5.383c.073.552.291.995.656 1.328.37.333.836.5 1.398.5.87 0 1.55-.315 2.039-.945l1.11 1.242a3.425 3.425 0 01-1.375 1.125 4.559 4.559 0 01-1.922.398zm-.258-6.937c-.448 0-.812.151-1.094.453-.276.302-.453.734-.531 1.297h3.141v-.18c-.011-.5-.146-.885-.406-1.156-.261-.276-.631-.414-1.11-.414zm9.774.445a6.09 6.09 0 00-.813-.062c-.854 0-1.414.289-1.68.867V411h-2.257v-8.453h2.132l.063 1.008c.453-.776 1.081-1.164 1.883-1.164.25 0 .484.033.703.101l-.031 2.172zM380.711 196h-2.344v-11.375h2.344V196zm6.609-2.336c0-.276-.138-.492-.414-.648-.271-.162-.708-.305-1.312-.43-2.011-.422-3.016-1.276-3.016-2.563 0-.75.31-1.375.93-1.875.625-.505 1.44-.757 2.445-.757 1.073 0 1.93.252 2.57.757.646.506.969 1.162.969 1.969h-2.258c0-.323-.104-.588-.312-.797-.208-.213-.534-.32-.977-.32-.38 0-.674.086-.883.258a.814.814 0 00-.312.656c0 .25.117.453.352.609.239.151.64.284 1.203.399a9.457 9.457 0 011.422.375c1.192.437 1.789 1.195 1.789 2.273 0 .771-.331 1.396-.993 1.875-.661.474-1.515.711-2.562.711-.708 0-1.339-.125-1.891-.375-.547-.255-.976-.601-1.289-1.039a2.436 2.436 0 01-.469-1.43h2.141c.021.402.169.709.445.922.276.214.646.321 1.11.321.432 0 .758-.081.976-.243a.771.771 0 00.336-.648zm8.235 0c0-.276-.138-.492-.414-.648-.271-.162-.709-.305-1.313-.43-2.01-.422-3.016-1.276-3.016-2.563 0-.75.31-1.375.93-1.875.625-.505 1.44-.757 2.446-.757 1.072 0 1.929.252 2.57.757.646.506.969 1.162.969 1.969h-2.258c0-.323-.104-.588-.313-.797-.208-.213-.534-.32-.976-.32-.381 0-.675.086-.883.258a.814.814 0 00-.313.656c0 .25.118.453.352.609.24.151.641.284 1.203.399a9.393 9.393 0 011.422.375c1.193.437 1.789 1.195 1.789 2.273 0 .771-.331 1.396-.992 1.875-.662.474-1.516.711-2.563.711-.708 0-1.338-.125-1.89-.375-.547-.255-.977-.601-1.289-1.039a2.429 2.429 0 01-.469-1.43h2.141c.02.402.169.709.445.922.276.214.646.321 1.109.321.432 0 .758-.081.977-.243a.771.771 0 00.336-.648zm8.718 1.477c-.557.677-1.328 1.015-2.312 1.015-.906 0-1.599-.26-2.078-.781-.474-.521-.716-1.284-.727-2.289v-5.539h2.258v5.461c0 .88.401 1.32 1.203 1.32.766 0 1.292-.266 1.578-.797v-5.984h2.266V196h-2.125l-.063-.859zm7.782 1.015c-1.24 0-2.25-.38-3.032-1.14-.776-.761-1.164-1.774-1.164-3.039v-.219c0-.849.164-1.607.493-2.274.328-.672.791-1.187 1.39-1.546.604-.365 1.292-.547 2.063-.547 1.156 0 2.065.364 2.726 1.093.667.73 1 1.763 1 3.102v.922h-5.383c.073.552.292.995.657 1.328.369.333.836.5 1.398.5.87 0 1.55-.315 2.039-.945l1.11 1.242a3.425 3.425 0 01-1.375 1.125 4.562 4.562 0 01-1.922.398zm-.258-6.937c-.448 0-.813.151-1.094.453-.276.302-.453.734-.531 1.297h3.14v-.18c-.01-.5-.145-.885-.406-1.156-.26-.276-.63-.414-1.109-.414zm9.773.445a6.064 6.064 0 00-.812-.062c-.854 0-1.414.289-1.68.867V196h-2.258v-8.453h2.133l.063 1.008c.453-.776 1.08-1.164 1.882-1.164.25 0 .485.033.704.101l-.032 2.172zM74.777 213.18l2.557 6.381 2.557-6.381h1.337V221h-1.031v-3.045l.096-3.288L77.726 221h-.79l-2.562-6.316.103 3.271V221h-1.032v-7.82h1.332zm10.528 7.927c-.788 0-1.429-.257-1.923-.773-.494-.519-.741-1.212-.741-2.079v-.182c0-.577.109-1.091.327-1.542.222-.455.53-.809.924-1.063a2.323 2.323 0 011.29-.387c.755 0 1.342.249 1.76.747.42.497.63 1.21.63 2.137v.414h-3.938c.015.573.181 1.037.5 1.391.322.351.73.526 1.224.526.351 0 .648-.071.892-.214.243-.144.457-.333.64-.57l.606.473c-.487.748-1.217 1.122-2.191 1.122zm-.124-5.21a1.32 1.32 0 00-1.01.441c-.272.29-.44.698-.505 1.224h2.912v-.075c-.029-.505-.165-.895-.409-1.171-.243-.279-.572-.419-.988-.419zm6.354.183a2.984 2.984 0 00-.489-.038c-.651 0-1.094.278-1.326.833V221h-.994v-5.812h.967l.016.672c.326-.519.788-.779 1.386-.779.193 0 .34.025.44.075v.924zm3.142 4.216c.355 0 .664-.107.93-.322.264-.215.411-.483.44-.806h.94c-.018.333-.133.65-.344.951a2.258 2.258 0 01-.849.72 2.42 2.42 0 01-1.117.268c-.791 0-1.421-.263-1.89-.789-.466-.53-.699-1.253-.699-2.17v-.167c0-.565.104-1.068.312-1.509a2.39 2.39 0 01.891-1.026c.39-.243.85-.365 1.38-.365.653 0 1.193.195 1.623.586.433.39.664.896.693 1.52h-.94a1.355 1.355 0 00-.43-.924 1.312 1.312 0 00-.945-.366c-.505 0-.897.183-1.176.548-.276.362-.414.887-.414 1.574v.188c0 .67.138 1.185.414 1.547.275.362.67.542 1.181.542zm4.42-4.404c.441-.541 1.014-.811 1.719-.811 1.229 0 1.848.693 1.859 2.079V221h-.994v-3.846c-.003-.419-.1-.728-.29-.929-.186-.2-.478-.301-.875-.301-.323 0-.606.086-.849.258a1.754 1.754 0 00-.57.677V221h-.993v-8.25h.994v3.142zM107.75 221c-.057-.115-.103-.319-.139-.612-.462.48-1.014.719-1.654.719-.573 0-1.044-.161-1.413-.483a1.586 1.586 0 01-.548-1.235c0-.605.229-1.075.688-1.408.462-.336 1.11-.504 1.944-.504h.967v-.457c0-.347-.104-.623-.312-.827-.207-.208-.514-.312-.918-.312-.355 0-.652.09-.892.269-.24.179-.36.396-.36.65h-.999c0-.29.102-.57.306-.838a2.13 2.13 0 01.838-.645 2.849 2.849 0 011.166-.236c.669 0 1.194.168 1.574.505.379.333.576.793.59 1.38v2.675c0 .534.068.958.204 1.273V221h-1.042zm-1.648-.757c.311 0 .606-.081.886-.242a1.47 1.47 0 00.607-.628v-1.193h-.779c-1.218 0-1.826.356-1.826 1.069 0 .312.104.555.311.73.208.176.475.264.801.264zm4.984-5.055l.032.731c.444-.559 1.024-.838 1.74-.838 1.229 0 1.848.693 1.859 2.079V221h-.994v-3.846c-.003-.419-.1-.728-.29-.929-.186-.2-.478-.301-.875-.301-.323 0-.606.086-.849.258a1.749 1.749 0 00-.569.677V221h-.994v-5.812h.94zm6.477-1.407v1.407h1.085v.769h-1.085v3.604c0 .232.049.408.145.526.097.114.262.172.495.172.114 0 .272-.022.472-.065V221a2.857 2.857 0 01-.762.107c-.444 0-.779-.134-1.005-.402-.225-.269-.338-.65-.338-1.144v-3.604h-1.058v-.769h1.058v-1.407h.993zm5.635 5.677a.723.723 0 00-.306-.623c-.201-.15-.554-.279-1.059-.386-.501-.108-.9-.237-1.197-.387-.294-.15-.512-.329-.656-.537a1.303 1.303 0 01-.209-.741c0-.477.201-.879.602-1.209.404-.329.92-.494 1.546-.494.659 0 1.193.17 1.601.51.412.34.618.776.618 1.305h-.999c0-.272-.117-.506-.349-.703-.23-.197-.52-.296-.871-.296-.361 0-.644.079-.848.237a.742.742 0 00-.306.617c0 .24.095.421.284.543.19.122.532.238 1.026.349.498.111.901.244 1.209.398.308.153.535.34.682.558.15.215.225.478.225.79 0 .519-.207.936-.623 1.251-.415.312-.954.467-1.616.467-.466 0-.878-.082-1.236-.247a2.034 2.034 0 01-.843-.687 1.691 1.691 0 01-.301-.962h.994c.018.333.15.598.397.795.251.194.58.29.989.29.376 0 .676-.075.902-.225.229-.154.344-.358.344-.613zm-69.072 11.48V234h-1.032v-7.82h2.884c.856 0 1.526.218 2.01.655.486.437.73 1.015.73 1.735 0 .759-.238 1.344-.715 1.756-.472.408-1.15.612-2.035.612h-1.843zm0-.843h1.852c.552 0 .974-.129 1.268-.387.294-.261.44-.637.44-1.127 0-.466-.146-.838-.44-1.118-.294-.279-.696-.424-1.208-.435h-1.912v3.067zM63.4 234c-.057-.115-.104-.319-.14-.612-.461.48-1.013.719-1.654.719-.572 0-1.043-.161-1.412-.483a1.585 1.585 0 01-.548-1.235c0-.605.23-1.075.688-1.408.461-.336 1.11-.504 1.944-.504h.967v-.457c0-.347-.104-.623-.312-.827-.208-.208-.514-.312-.918-.312-.355 0-.652.09-.892.269-.24.179-.36.396-.36.65h-.999c0-.29.102-.57.306-.838a2.13 2.13 0 01.838-.645 2.846 2.846 0 011.166-.236c.67 0 1.194.168 1.573.505.38.333.577.793.591 1.38v2.675c0 .534.068.958.204 1.273V234H63.4zm-1.649-.757c.312 0 .607-.081.887-.242a1.47 1.47 0 00.607-.628v-1.193h-.78c-1.217 0-1.825.356-1.825 1.069 0 .312.104.555.311.73.208.176.475.264.8.264zm5.86-.699l1.354-4.356h1.063l-2.336 6.709c-.362.967-.936 1.45-1.724 1.45l-.188-.016-.37-.07v-.805l.268.021c.336 0 .598-.068.784-.204.19-.136.345-.385.467-.747l.22-.59-2.073-5.748h1.085l1.45 4.356zm4.244-4.356l.026.645c.426-.501 1.001-.752 1.724-.752.813 0 1.367.312 1.66.935a2.21 2.21 0 01.752-.677c.312-.172.679-.258 1.101-.258 1.275 0 1.923.675 1.945 2.025V234h-.994v-3.835c0-.415-.095-.725-.285-.929-.19-.208-.508-.312-.956-.312-.369 0-.675.111-.918.333-.244.219-.385.514-.425.887V234h-.999v-3.808c0-.845-.413-1.268-1.24-1.268-.652 0-1.098.278-1.338.833V234h-.994v-5.812h.94zm11.123 5.919c-.788 0-1.429-.257-1.923-.773-.494-.519-.741-1.212-.741-2.079v-.182c0-.577.11-1.091.328-1.542a2.58 2.58 0 01.923-1.063 2.323 2.323 0 011.29-.387c.755 0 1.342.249 1.761.747.42.497.629 1.21.629 2.137v.414h-3.937c.014.573.18 1.037.5 1.391.321.351.73.526 1.224.526.35 0 .648-.071.891-.214.244-.144.457-.333.64-.57l.606.473c-.487.748-1.217 1.122-2.191 1.122zm-.123-5.21a1.32 1.32 0 00-1.01.441c-.272.29-.44.698-.505 1.224h2.911v-.075c-.029-.505-.165-.895-.408-1.171-.244-.279-.573-.419-.988-.419zm4.484-.709l.033.731c.444-.559 1.024-.838 1.74-.838 1.228 0 1.847.693 1.858 2.079V234h-.993v-3.846c-.004-.419-.1-.728-.29-.929-.187-.2-.478-.301-.876-.301-.322 0-.605.086-.849.258a1.755 1.755 0 00-.569.677V234H86.4v-5.812h.94zm6.478-1.407v1.407h1.085v.769h-1.085v3.604c0 .232.048.408.145.526.097.114.261.172.494.172.115 0 .272-.022.473-.065V234a2.864 2.864 0 01-.763.107c-.444 0-.779-.134-1.004-.402-.226-.269-.339-.65-.339-1.144v-3.604h-1.058v-.769h1.058v-1.407h.994zm6.166 4.157V234h-1.031v-7.82h2.884c.856 0 1.525.218 2.009.655.487.437.73 1.015.73 1.735 0 .759-.238 1.344-.714 1.756-.473.408-1.151.612-2.036.612h-1.842zm0-.843h1.853c.551 0 .974-.129 1.267-.387.294-.261.441-.637.441-1.127 0-.466-.147-.838-.441-1.118-.293-.279-.696-.424-1.208-.435h-1.912v3.067zm8.561-1.015a2.974 2.974 0 00-.488-.038c-.652 0-1.094.278-1.327.833V234h-.994v-5.812h.967l.016.672c.326-.519.788-.779 1.386-.779.193 0 .34.025.44.075v.924zm.548 1.961c0-.57.111-1.082.333-1.537a2.53 2.53 0 01.935-1.052 2.556 2.556 0 011.369-.371c.792 0 1.431.274 1.918.822.491.548.736 1.276.736 2.186v.07c0 .565-.109 1.074-.328 1.525a2.439 2.439 0 01-.929 1.047c-.401.251-.863.376-1.386.376-.788 0-1.427-.274-1.917-.821-.487-.548-.731-1.273-.731-2.176v-.069zm.999.118c0 .644.149 1.162.446 1.552.301.39.702.585 1.203.585.505 0 .906-.197 1.203-.59.298-.398.446-.953.446-1.665 0-.638-.152-1.153-.456-1.547a1.434 1.434 0 00-1.204-.597c-.49 0-.886.196-1.187.586-.3.39-.451.949-.451 1.676zm7.869 2.137c.354 0 .664-.107.929-.322.265-.215.412-.483.441-.806h.94c-.018.333-.133.65-.344.951a2.26 2.26 0 01-.849.72 2.424 2.424 0 01-1.117.268c-.791 0-1.422-.263-1.891-.789-.465-.53-.698-1.253-.698-2.17v-.167c0-.565.104-1.068.312-1.509.207-.44.504-.782.891-1.026.39-.243.851-.365 1.381-.365.651 0 1.192.195 1.622.586.433.39.664.896.693 1.52h-.94a1.356 1.356 0 00-.43-.924 1.31 1.31 0 00-.945-.366c-.505 0-.897.183-1.177.548-.275.362-.413.887-.413 1.574v.188c0 .67.138 1.185.413 1.547.276.362.67.542 1.182.542zm5.838.811c-.787 0-1.428-.257-1.923-.773-.494-.519-.741-1.212-.741-2.079v-.182c0-.577.109-1.091.328-1.542.222-.455.53-.809.924-1.063a2.321 2.321 0 011.289-.387c.755 0 1.343.249 1.762.747.418.497.628 1.21.628 2.137v.414h-3.937c.014.573.181 1.037.499 1.391.323.351.731.526 1.225.526.351 0 .648-.071.892-.214.243-.144.456-.333.639-.57l.607.473c-.487.748-1.218 1.122-2.192 1.122zm-.123-5.21c-.401 0-.738.147-1.01.441-.272.29-.44.698-.505 1.224h2.911v-.075c-.028-.505-.164-.895-.408-1.171-.243-.279-.573-.419-.988-.419zm6.928 3.561a.723.723 0 00-.306-.623c-.2-.15-.553-.279-1.058-.386-.501-.108-.9-.237-1.198-.387-.293-.15-.512-.329-.655-.537a1.303 1.303 0 01-.209-.741c0-.477.2-.879.601-1.209.405-.329.921-.494 1.547-.494.659 0 1.193.17 1.601.51.412.34.617.776.617 1.305h-.999c0-.272-.116-.506-.349-.703-.229-.197-.519-.296-.87-.296-.361 0-.644.079-.848.237a.74.74 0 00-.307.617c0 .24.095.421.285.543.19.122.532.238 1.026.349.498.111.9.244 1.208.398.308.153.536.34.683.558.15.215.225.478.225.79 0 .519-.208.936-.623 1.251-.415.312-.954.467-1.617.467-.465 0-.877-.082-1.235-.247a2.034 2.034 0 01-.843-.687 1.684 1.684 0 01-.301-.962h.994c.018.333.15.598.397.795.251.194.58.29.988.29.376 0 .677-.075.903-.225.229-.154.343-.358.343-.613zm5.672 0a.723.723 0 00-.306-.623c-.2-.15-.553-.279-1.058-.386-.501-.108-.9-.237-1.198-.387-.293-.15-.512-.329-.655-.537a1.295 1.295 0 01-.209-.741c0-.477.2-.879.601-1.209.405-.329.92-.494 1.547-.494.659 0 1.192.17 1.601.51.411.34.617.776.617 1.305h-.999c0-.272-.116-.506-.349-.703-.229-.197-.519-.296-.87-.296-.362 0-.644.079-.849.237a.742.742 0 00-.306.617c0 .24.095.421.285.543.19.122.532.238 1.026.349.498.111.9.244 1.208.398.308.153.536.34.682.558.151.215.226.478.226.79 0 .519-.208.936-.623 1.251-.415.312-.954.467-1.617.467-.465 0-.877-.082-1.235-.247a2.034 2.034 0 01-.843-.687 1.684 1.684 0 01-.301-.962h.994c.017.333.15.598.397.795.251.194.58.29.988.29.376 0 .677-.075.903-.225.229-.154.343-.358.343-.613zm2.025-1.417c0-.57.111-1.082.333-1.537a2.53 2.53 0 01.935-1.052 2.556 2.556 0 011.369-.371c.792 0 1.431.274 1.918.822.491.548.736 1.276.736 2.186v.07c0 .565-.109 1.074-.328 1.525a2.439 2.439 0 01-.929 1.047c-.401.251-.863.376-1.386.376-.788 0-1.427-.274-1.917-.821-.487-.548-.731-1.273-.731-2.176v-.069zm.999.118c0 .644.149 1.162.446 1.552.301.39.702.585 1.203.585.505 0 .906-.197 1.203-.59.298-.398.446-.953.446-1.665 0-.638-.152-1.153-.456-1.547a1.434 1.434 0 00-1.204-.597c-.49 0-.886.196-1.187.586-.3.39-.451.949-.451 1.676zm8.347-2.079a2.978 2.978 0 00-.489-.038c-.651 0-1.094.278-1.326.833V234h-.994v-5.812h.967l.016.672c.326-.519.788-.779 1.386-.779.193 0 .34.025.44.075v.924zm230.875-10.561c-.097.827-.403 1.466-.918 1.917-.513.448-1.195.671-2.047.671-.924 0-1.665-.331-2.223-.993-.555-.663-.833-1.549-.833-2.659v-.752c0-.727.129-1.366.387-1.917.261-.552.63-.974 1.106-1.268.476-.297 1.028-.446 1.654-.446.831 0 1.497.233 1.999.699.501.461.793 1.102.875 1.922h-1.037c-.089-.623-.284-1.074-.585-1.353-.297-.279-.714-.419-1.252-.419-.658 0-1.176.243-1.552.73-.372.487-.558 1.18-.558 2.079v.757c0 .849.177 1.524.531 2.025.355.502.851.752 1.488.752.573 0 1.012-.129 1.316-.387.308-.261.512-.714.612-1.358h1.037zm4.845 1.906c-.387.455-.955.682-1.703.682-.619 0-1.092-.179-1.418-.537-.322-.361-.485-.895-.489-1.6v-3.782h.994v3.755c0 .881.358 1.321 1.074 1.321.759 0 1.264-.283 1.515-.848v-4.228h.994V221h-.946l-.021-.575zm5.865-.967a.723.723 0 00-.306-.623c-.201-.15-.553-.279-1.058-.386-.502-.108-.901-.237-1.198-.387-.294-.15-.512-.329-.655-.537a1.295 1.295 0 01-.21-.741c0-.477.201-.879.602-1.209.404-.329.92-.494 1.547-.494.658 0 1.192.17 1.6.51.412.34.618.776.618 1.305h-.999c0-.272-.116-.506-.349-.703-.229-.197-.519-.296-.87-.296-.362 0-.645.079-.849.237a.742.742 0 00-.306.617c0 .24.095.421.285.543.189.122.531.238 1.025.349.498.111.901.244 1.209.398.308.153.535.34.682.558.15.215.226.478.226.79 0 .519-.208.936-.623 1.251-.416.312-.955.467-1.617.467-.466 0-.877-.082-1.235-.247a2.03 2.03 0 01-.844-.687 1.691 1.691 0 01-.301-.962h.994c.018.333.151.598.398.795.25.194.58.29.988.29.376 0 .677-.075.902-.225.229-.154.344-.358.344-.613zm3.636-5.677v1.407h1.085v.769h-1.085v3.604c0 .232.049.408.145.526.097.114.262.172.494.172.115 0 .272-.022.473-.065V221a2.864 2.864 0 01-.763.107c-.444 0-.778-.134-1.004-.402-.226-.269-.338-.65-.338-1.144v-3.604h-1.059v-.769h1.059v-1.407h.993zm1.88 4.26c0-.57.111-1.082.333-1.537a2.53 2.53 0 01.935-1.052 2.556 2.556 0 011.369-.371c.792 0 1.431.274 1.918.822.49.548.736 1.276.736 2.186v.07c0 .565-.11 1.074-.328 1.525a2.445 2.445 0 01-.929 1.047c-.401.251-.863.376-1.386.376-.788 0-1.427-.274-1.917-.821-.487-.548-.731-1.273-.731-2.176v-.069zm.999.118c0 .644.149 1.162.446 1.552.301.39.702.585 1.203.585.505 0 .906-.197 1.203-.59.297-.398.446-.953.446-1.665 0-.638-.152-1.153-.457-1.547a1.43 1.43 0 00-1.203-.597c-.49 0-.886.196-1.187.586-.301.39-.451.949-.451 1.676zm6.472-2.971l.027.645c.426-.501 1.001-.752 1.724-.752.813 0 1.366.312 1.66.935a2.2 2.2 0 01.752-.677c.311-.172.678-.258 1.101-.258 1.275 0 1.923.675 1.944 2.025V221h-.993v-3.835c0-.415-.095-.725-.285-.929-.19-.208-.509-.312-.956-.312-.369 0-.675.111-.919.333-.243.219-.384.514-.424.887V221h-.999v-3.808c0-.845-.413-1.268-1.241-1.268-.651 0-1.097.278-1.337.833V221h-.994v-5.812h.94zm11.124 5.919c-.788 0-1.429-.257-1.923-.773-.494-.519-.741-1.212-.741-2.079v-.182c0-.577.109-1.091.327-1.542.222-.455.53-.809.924-1.063a2.324 2.324 0 011.289-.387c.756 0 1.343.249 1.762.747.419.497.628 1.21.628 2.137v.414h-3.937c.015.573.181 1.037.5 1.391.322.351.73.526 1.225.526.35 0 .648-.071.891-.214.244-.144.457-.333.639-.57l.607.473c-.487.748-1.217 1.122-2.191 1.122zm-.124-5.21c-.401 0-.737.147-1.01.441-.272.29-.44.698-.504 1.224h2.911v-.075c-.029-.505-.165-.895-.408-1.171-.244-.279-.573-.419-.989-.419zm6.354.183a2.978 2.978 0 00-.489-.038c-.651 0-1.093.278-1.326.833V221h-.994v-5.812h.967l.016.672c.326-.519.788-.779 1.386-.779.193 0 .34.025.44.075v.924zm4.303 3.378a.724.724 0 00-.307-.623c-.2-.15-.553-.279-1.058-.386-.501-.108-.9-.237-1.198-.387-.293-.15-.512-.329-.655-.537a1.303 1.303 0 01-.209-.741c0-.477.2-.879.601-1.209.405-.329.921-.494 1.547-.494.659 0 1.193.17 1.601.51.412.34.617.776.617 1.305h-.999c0-.272-.116-.506-.349-.703-.229-.197-.519-.296-.87-.296-.361 0-.644.079-.848.237a.74.74 0 00-.307.617c0 .24.095.421.285.543.19.122.532.238 1.026.349.498.111.901.244 1.208.398.308.153.536.34.683.558.15.215.225.478.225.79 0 .519-.208.936-.623 1.251-.415.312-.954.467-1.617.467-.465 0-.877-.082-1.235-.247a2.034 2.034 0 01-.843-.687 1.684 1.684 0 01-.301-.962h.994c.018.333.15.598.397.795.251.194.58.29.988.29.376 0 .677-.075.903-.225.229-.154.344-.358.344-.613zm-69.75 11.48V234h-1.031v-7.82h2.885c.855 0 1.525.218 2.008.655.487.437.731 1.015.731 1.735 0 .759-.238 1.344-.715 1.756-.472.408-1.151.612-2.035.612h-1.843zm0-.843h1.854c.551 0 .973-.129 1.267-.387.294-.261.441-.637.441-1.127 0-.466-.147-.838-.441-1.118-.294-.279-.696-.424-1.208-.435h-1.913v3.067zm9.276 3.905c-.057-.115-.103-.319-.139-.612-.462.48-1.014.719-1.655.719-.572 0-1.043-.161-1.412-.483a1.586 1.586 0 01-.548-1.235c0-.605.229-1.075.687-1.408.462-.336 1.11-.504 1.945-.504h.967v-.457c0-.347-.104-.623-.312-.827-.208-.208-.514-.312-.918-.312-.355 0-.652.09-.892.269-.24.179-.36.396-.36.65h-.999c0-.29.102-.57.306-.838a2.13 2.13 0 01.838-.645 2.849 2.849 0 011.166-.236c.669 0 1.194.168 1.573.505.38.333.577.793.591 1.38v2.675c0 .534.068.958.204 1.273V234h-1.042zm-1.649-.757c.312 0 .607-.081.887-.242a1.47 1.47 0 00.607-.628v-1.193h-.779c-1.218 0-1.826.356-1.826 1.069 0 .312.103.555.311.73.208.176.475.264.8.264zm5.86-.699l1.354-4.356h1.063l-2.336 6.709c-.362.967-.936 1.45-1.724 1.45l-.188-.016-.371-.07v-.805l.269.021c.336 0 .598-.068.784-.204.19-.136.345-.385.467-.747l.22-.59-2.073-5.748h1.085l1.45 4.356zm4.243-4.356l.027.645c.426-.501 1.001-.752 1.724-.752.813 0 1.366.312 1.66.935a2.2 2.2 0 01.752-.677c.312-.172.679-.258 1.101-.258 1.275 0 1.923.675 1.944 2.025V234h-.993v-3.835c0-.415-.095-.725-.285-.929-.19-.208-.508-.312-.956-.312-.369 0-.675.111-.918.333-.244.219-.385.514-.425.887V234h-.999v-3.808c0-.845-.413-1.268-1.24-1.268-.652 0-1.098.278-1.338.833V234h-.993v-5.812h.939zm11.124 5.919c-.788 0-1.429-.257-1.923-.773-.494-.519-.741-1.212-.741-2.079v-.182c0-.577.109-1.091.328-1.542a2.58 2.58 0 01.923-1.063 2.326 2.326 0 011.289-.387c.756 0 1.343.249 1.762.747.419.497.629 1.21.629 2.137v.414h-3.937c.014.573.18 1.037.499 1.391a1.59 1.59 0 001.225.526c.351 0 .648-.071.891-.214.244-.144.457-.333.639-.57l.607.473c-.487.748-1.217 1.122-2.191 1.122zm-.124-5.21a1.32 1.32 0 00-1.009.441c-.272.29-.441.698-.505 1.224h2.911v-.075c-.029-.505-.165-.895-.408-1.171-.244-.279-.573-.419-.989-.419zm4.485-.709l.033.731c.444-.559 1.024-.838 1.74-.838 1.228 0 1.847.693 1.858 2.079V234h-.993v-3.846c-.004-.419-.101-.728-.29-.929-.187-.2-.479-.301-.876-.301-.322 0-.605.086-.849.258a1.757 1.757 0 00-.569.677V234h-.994v-5.812h.94zm6.478-1.407v1.407h1.085v.769h-1.085v3.604c0 .232.048.408.145.526.097.114.261.172.494.172.115 0 .272-.022.473-.065V234a2.87 2.87 0 01-.763.107c-.444 0-.779-.134-1.004-.402-.226-.269-.339-.65-.339-1.144v-3.604h-1.058v-.769h1.058v-1.407h.994zm6.166 4.157V234h-1.031v-7.82h2.884c.856 0 1.525.218 2.009.655.487.437.73 1.015.73 1.735 0 .759-.238 1.344-.714 1.756-.473.408-1.151.612-2.036.612h-1.842zm0-.843h1.853c.551 0 .974-.129 1.267-.387.294-.261.441-.637.441-1.127 0-.466-.147-.838-.441-1.118-.293-.279-.696-.424-1.208-.435h-1.912v3.067zm8.561-1.015a2.974 2.974 0 00-.488-.038c-.652 0-1.094.278-1.327.833V234h-.994v-5.812h.967l.016.672c.326-.519.788-.779 1.386-.779.193 0 .34.025.44.075v.924zm.548 1.961c0-.57.111-1.082.333-1.537a2.53 2.53 0 01.935-1.052 2.556 2.556 0 011.369-.371c.792 0 1.431.274 1.918.822.491.548.736 1.276.736 2.186v.07c0 .565-.109 1.074-.328 1.525a2.439 2.439 0 01-.929 1.047c-.401.251-.863.376-1.386.376-.788 0-1.427-.274-1.917-.821-.487-.548-.731-1.273-.731-2.176v-.069zm.999.118c0 .644.149 1.162.446 1.552.301.39.702.585 1.203.585.505 0 .906-.197 1.203-.59.298-.398.446-.953.446-1.665 0-.638-.152-1.153-.456-1.547a1.434 1.434 0 00-1.204-.597c-.49 0-.886.196-1.187.586-.3.39-.451.949-.451 1.676zm7.869 2.137c.354 0 .664-.107.929-.322.265-.215.412-.483.441-.806h.94c-.018.333-.133.65-.344.951a2.26 2.26 0 01-.849.72 2.424 2.424 0 01-1.117.268c-.791 0-1.422-.263-1.891-.789-.465-.53-.698-1.253-.698-2.17v-.167c0-.565.104-1.068.312-1.509.207-.44.504-.782.891-1.026.39-.243.851-.365 1.381-.365.651 0 1.192.195 1.622.586.433.39.664.896.693 1.52h-.94a1.356 1.356 0 00-.43-.924 1.31 1.31 0 00-.945-.366c-.505 0-.897.183-1.177.548-.275.362-.413.887-.413 1.574v.188c0 .67.138 1.185.413 1.547.276.362.67.542 1.182.542zm5.838.811c-.787 0-1.428-.257-1.923-.773-.494-.519-.741-1.212-.741-2.079v-.182c0-.577.109-1.091.328-1.542.222-.455.53-.809.924-1.063a2.321 2.321 0 011.289-.387c.755 0 1.343.249 1.762.747.418.497.628 1.21.628 2.137v.414h-3.937c.014.573.181 1.037.499 1.391.323.351.731.526 1.225.526.351 0 .648-.071.892-.214.243-.144.456-.333.639-.57l.607.473c-.487.748-1.218 1.122-2.192 1.122zm-.123-5.21c-.401 0-.738.147-1.01.441-.272.29-.44.698-.505 1.224h2.911v-.075c-.028-.505-.164-.895-.408-1.171-.243-.279-.573-.419-.988-.419zm6.928 3.561a.723.723 0 00-.306-.623c-.2-.15-.553-.279-1.058-.386-.501-.108-.9-.237-1.198-.387-.293-.15-.512-.329-.655-.537a1.303 1.303 0 01-.209-.741c0-.477.2-.879.601-1.209.405-.329.921-.494 1.547-.494.659 0 1.193.17 1.601.51.412.34.617.776.617 1.305h-.999c0-.272-.116-.506-.349-.703-.229-.197-.519-.296-.87-.296-.361 0-.644.079-.848.237a.74.74 0 00-.307.617c0 .24.095.421.285.543.19.122.532.238 1.026.349.498.111.9.244 1.208.398.308.153.536.34.683.558.15.215.225.478.225.79 0 .519-.208.936-.623 1.251-.415.312-.954.467-1.617.467-.465 0-.877-.082-1.235-.247a2.034 2.034 0 01-.843-.687 1.684 1.684 0 01-.301-.962h.994c.018.333.15.598.397.795.251.194.58.29.988.29.376 0 .677-.075.903-.225.229-.154.343-.358.343-.613zm5.672 0a.723.723 0 00-.306-.623c-.2-.15-.553-.279-1.058-.386-.501-.108-.9-.237-1.198-.387-.293-.15-.512-.329-.655-.537a1.295 1.295 0 01-.209-.741c0-.477.2-.879.601-1.209.405-.329.92-.494 1.547-.494.659 0 1.192.17 1.601.51.411.34.617.776.617 1.305h-.999c0-.272-.116-.506-.349-.703-.229-.197-.519-.296-.87-.296-.362 0-.644.079-.849.237a.742.742 0 00-.306.617c0 .24.095.421.285.543.19.122.532.238 1.026.349.498.111.9.244 1.208.398.308.153.536.34.682.558.151.215.226.478.226.79 0 .519-.208.936-.623 1.251-.415.312-.954.467-1.617.467-.465 0-.877-.082-1.235-.247a2.034 2.034 0 01-.843-.687 1.684 1.684 0 01-.301-.962h.994c.017.333.15.598.397.795.251.194.58.29.988.29.376 0 .677-.075.903-.225.229-.154.343-.358.343-.613zm2.025-1.417c0-.57.111-1.082.333-1.537a2.53 2.53 0 01.935-1.052 2.556 2.556 0 011.369-.371c.792 0 1.431.274 1.918.822.491.548.736 1.276.736 2.186v.07c0 .565-.109 1.074-.328 1.525a2.439 2.439 0 01-.929 1.047c-.401.251-.863.376-1.386.376-.788 0-1.427-.274-1.917-.821-.487-.548-.731-1.273-.731-2.176v-.069zm.999.118c0 .644.149 1.162.446 1.552.301.39.702.585 1.203.585.505 0 .906-.197 1.203-.59.298-.398.446-.953.446-1.665 0-.638-.152-1.153-.456-1.547a1.434 1.434 0 00-1.204-.597c-.49 0-.886.196-1.187.586-.3.39-.451.949-.451 1.676zm8.347-2.079a2.978 2.978 0 00-.489-.038c-.651 0-1.094.278-1.326.833V234h-.994v-5.812h.967l.016.672c.326-.519.788-.779 1.386-.779.193 0 .34.025.44.075v.924z" fill="#000"/></svg>