<svg width="589" height="589" viewBox="0 0 589 589" fill="none" xmlns="http://www.w3.org/2000/svg"><path fill-rule="evenodd" clip-rule="evenodd" d="M587.335 263C576.17 158 509.824 69.482 417.852 27H332v70.317C414.339 113.232 478.686 179.619 491.565 263h95.77z" fill="#F59297"/><path fill-rule="evenodd" clip-rule="evenodd" d="M159 556.045V441.714A201.22 201.22 0 01134.539 415H64v62.821c25.714 32.289 58.07 59.053 95 78.224z" fill="#8FD1C1"/><path fill-rule="evenodd" clip-rule="evenodd" d="M587.541 265h-95.677a201.842 201.842 0 012.057 28.798c0 29.566-6.412 57.635-17.921 82.892V415h87.299C579.813 378.218 589 337.432 589 294.5c0-9.956-.494-19.798-1.459-29.5z" fill="#FABD84"/><path fill-rule="evenodd" clip-rule="evenodd" d="M536.5 222c-23.472 0-42.5 19.028-42.5 42.5v6c0 23.472 19.028 42.5 42.5 42.5s42.5-19.028 42.5-42.5v-6c0-23.472-19.028-42.5-42.5-42.5z" fill="#FCC9B3"/><path fill-rule="evenodd" clip-rule="evenodd" d="M575.471 383C537.897 502.404 426.311 589 294.5 589c-12.015 0-23.862-.72-35.5-2.118v-95.976a201.421 201.421 0 0034.798 3.015c78.472 0 146.396-45.167 179.192-110.921h102.481z" fill="#7FC78C"/><path fill-rule="evenodd" clip-rule="evenodd" d="M223.741 580.444C234.884 552.566 241 522.23 241 490.5c0-1.21-.009-2.419-.027-3.625-37.515-10.24-70.638-31.121-95.925-59.199C153.413 447.155 158 468.412 158 490.5c0 20.573-3.979 40.425-11.284 58.791a292.648 292.648 0 0077.025 31.153zM1.725 326.557c44.135 3.479 82.9 23.002 110.78 52.101-12.08-25.764-18.83-54.524-18.83-84.86 0-9.25.627-18.353 1.842-27.27-27.954-12.873-58.707-20.905-91.124-22.987A296.356 296.356 0 000 294.5c0 10.832.585 21.528 1.725 32.057z" fill="#459789"/><path fill-rule="evenodd" clip-rule="evenodd" d="M20.236 402H87V231H6.863C2.37 251.451 0 272.699 0 294.5c0 37.936 7.173 74.197 20.236 107.5z" fill="#8FD1C1"/><path fill-rule="evenodd" clip-rule="evenodd" d="M17.537 394.844C56.615 366.286 82 320.108 82 268c0-44.019-18.115-83.806-47.298-112.314 17.725-33.104 41.592-62.426 70.078-86.443 23.173 20.973 42.661 45.942 57.377 73.819-41.97 36.684-68.482 90.614-68.482 150.736 0 50.057 18.378 95.821 48.756 130.914a269.525 269.525 0 01-67.834 65.683c-24.663-27.667-44.183-60.017-57.06-95.551z" fill="#51797D"/><path fill-rule="evenodd" clip-rule="evenodd" d="M304 .15c-3.154-.1-6.321-.15-9.5-.15C185.184 0 89.78 59.56 38.967 148h117.745c35.813-33.686 84.039-54.325 137.086-54.325 3.421 0 6.823.085 10.202.255V.15z" fill="#978AA4"/><path fill-rule="evenodd" clip-rule="evenodd" d="M271.857 588.142c.312-34.154 9.221-66.253 24.668-94.24-.907.012-1.817.019-2.727.019-21.458 0-42.127-3.378-61.505-9.629-12.644 28.511-20.331 59.711-21.965 92.504a293.428 293.428 0 0061.529 11.346zm311.096-233.98c-28.314-13.464-59.437-21.98-92.25-24.43a198.755 198.755 0 01-21.855 61.128c.717-.008 1.434-.012 2.152-.012 33.53 0 65.124 8.286 92.847 22.923a292.21 292.21 0 0019.106-59.609z" fill="#6D995C"/><path fill-rule="evenodd" clip-rule="evenodd" d="M585.088 246.381C577.138 226.804 557.931 213 535.5 213c-21.12 0-39.382 12.238-48.081 30.01 4.243 16.218 6.502 33.239 6.502 50.788 0 2.092-.032 4.176-.096 6.252C503.632 312.217 518.657 320 535.5 320c26.711 0 48.85-19.575 52.854-45.162a295.08 295.08 0 00-3.266-28.457zM569 266.5c0 18.502-14.998 33.5-33.5 33.5-18.502 0-33.5-14.998-33.5-33.5 0-18.502 14.998-33.5 33.5-33.5 18.502 0 33.5 14.998 33.5 33.5z" fill="#F47F5F"/><path fill-rule="evenodd" clip-rule="evenodd" d="M558.041 162.915c-2.007.057-4.021.085-6.041.085-98.305 0-180.908-67.227-204.344-158.215 92.346 16.834 169.665 76.734 210.385 158.13z" fill="#CE6564"/><path fill-rule="evenodd" clip-rule="evenodd" d="M41.067 144.403C141.747 128.461 230.125 75.549 291.858.012 292.738.004 293.619 0 294.5 0c40.686 0 79.445 8.25 114.695 23.17a517.345 517.345 0 01-61.888 77.738c-17.032-4.714-34.977-7.233-53.509-7.233-93.041 0-171.252 63.492-193.669 149.513-31.561 7.743-64.266 12.577-97.813 14.201 5.137-40.858 18.645-79.11 38.751-112.986z" fill="#845578"/></svg>