<svg width="1002" height="245" viewBox="0 0 1002 245" fill="none" xmlns="http://www.w3.org/2000/svg"><path fill-rule="evenodd" clip-rule="evenodd" d="M244.308 109.397c-4.645-43.675-32.242-80.495-70.498-98.166h-35.712V40.48c34.25 6.62 61.016 34.234 66.373 68.917h39.837z" fill="#F59297"/><path fill-rule="evenodd" clip-rule="evenodd" d="M66.138 231.292v-47.557a83.729 83.729 0 01-10.176-11.112h-29.34v26.131a123.02 123.02 0 0039.516 32.538z" fill="#8FD1C1"/><path fill-rule="evenodd" clip-rule="evenodd" d="M244.393 110.229h-39.798c.564 3.912.856 7.911.856 11.979 0 12.298-2.667 23.974-7.454 34.48v15.935h36.312c6.87-15.3 10.691-32.265 10.691-50.123 0-4.141-.206-8.235-.607-12.271z" fill="#FABD84"/><path fill-rule="evenodd" clip-rule="evenodd" d="M223.162 92.343c-9.763 0-17.678 7.915-17.678 17.678v2.496c0 9.763 7.915 17.678 17.678 17.678 9.764 0 17.678-7.915 17.678-17.678v-2.496c0-9.763-7.914-17.678-17.678-17.678z" fill="#FCC9B3"/><path fill-rule="evenodd" clip-rule="evenodd" d="M239.372 159.312C223.743 208.98 177.328 245 122.5 245c-4.998 0-9.926-.299-14.767-.881v-39.922a83.792 83.792 0 0014.475 1.254c32.641 0 60.895-18.787 74.536-46.139h42.628z" fill="#7FC78C"/><path fill-rule="evenodd" clip-rule="evenodd" d="M93.067 241.441c4.635-11.596 7.179-24.215 7.179-37.413 0-.504-.004-1.006-.011-1.508-15.605-4.259-29.382-12.945-39.901-24.624a66.055 66.055 0 01.694 50.587 121.737 121.737 0 0032.04 12.958zM.717 135.835c18.359 1.446 34.483 9.567 46.08 21.671-5.024-10.716-7.832-22.679-7.832-35.298 0-3.848.26-7.634.766-11.343-11.628-5.355-24.42-8.696-37.904-9.562A123.274 123.274 0 000 122.5c0 4.506.243 8.955.717 13.335z" fill="#459789"/><path fill-rule="evenodd" clip-rule="evenodd" d="M8.418 167.216h27.77v-71.13H2.855A122.949 122.949 0 000 122.5c0 15.78 2.984 30.863 8.418 44.716z" fill="#9EC7D0"/><path fill-rule="evenodd" clip-rule="evenodd" d="M7.295 164.239c16.255-11.879 26.814-31.087 26.814-52.762 0-18.31-7.536-34.86-19.674-46.718a123.027 123.027 0 0129.15-35.957A111.907 111.907 0 0167.45 59.508c-17.458 15.26-28.486 37.692-28.486 62.7 0 20.822 7.645 39.858 20.28 54.455a112.103 112.103 0 01-28.216 27.321 122.433 122.433 0 01-23.734-39.745z" fill="#51797D"/><path fill-rule="evenodd" clip-rule="evenodd" d="M126.452.063C125.14.02 123.822 0 122.5 0 77.03 0 37.345 24.775 16.209 61.562h48.977c14.897-14.012 34.957-22.597 57.022-22.597 1.423 0 2.838.035 4.244.106V.063z" fill="#978AA4"/><path fill-rule="evenodd" clip-rule="evenodd" d="M113.081 244.643c.13-14.206 3.836-27.559 10.262-39.2a83.197 83.197 0 01-26.718-3.997 107.998 107.998 0 00-9.137 38.478 122.09 122.09 0 0025.593 4.719zm129.404-97.326a107.919 107.919 0 00-38.372-10.162 82.686 82.686 0 01-9.091 25.427c.298-.003.596-.005.895-.005 13.947 0 27.089 3.447 38.621 9.535a121.616 121.616 0 007.947-24.795z" fill="#6D995C"/><path fill-rule="evenodd" clip-rule="evenodd" d="M243.373 102.485c-3.307-8.144-11.296-13.886-20.627-13.886-8.785 0-16.381 5.09-19.999 12.483a83.408 83.408 0 012.664 23.727c4.079 5.06 10.329 8.298 17.335 8.298 11.111 0 20.32-8.142 21.985-18.785-.263-4.002-.719-7.95-1.358-11.837zm-6.692 8.368c0 7.696-6.239 13.935-13.935 13.935-7.696 0-13.934-6.239-13.934-13.935 0-7.696 6.238-13.934 13.934-13.934 7.696 0 13.935 6.238 13.935 13.934z" fill="#F47F5F"/><path fill-rule="evenodd" clip-rule="evenodd" d="M232.122 67.766c-.835.024-1.672.035-2.513.035-40.89 0-75.25-27.963-84.998-65.81 38.412 7.002 70.573 31.918 87.511 65.775z" fill="#CE6564"/><path fill-rule="evenodd" clip-rule="evenodd" d="M17.082 60.066c41.879-6.632 78.64-28.64 104.319-60.061.366-.003.732-.005 1.099-.005 16.924 0 33.046 3.432 47.709 9.638a215.226 215.226 0 01-25.743 32.336 83.33 83.33 0 00-22.258-3.01c-38.701 0-71.234 26.411-80.558 62.192a214.04 214.04 0 01-40.687 5.907 121.71 121.71 0 0116.12-46.997z" fill="#845578"/><path d="M327.544 156.96c-8.384 0-14.88-2.176-19.488-6.528-4.544-4.416-6.944-11.04-7.2-19.872-.064-1.92-.096-4.64-.096-8.16 0-3.52.032-6.208.096-8.064.256-8.64 2.752-15.2 7.488-19.68 4.736-4.544 11.136-6.816 19.2-6.816 8 0 14.368 2.272 19.104 6.816 4.736 4.48 7.232 11.04 7.488 19.68.128 3.712.192 6.4.192 8.064 0 1.6-.064 4.32-.192 8.16-.256 8.832-2.688 15.456-7.296 19.872-4.544 4.352-10.976 6.528-19.296 6.528zm0-8.16c5.056 0 9.088-1.536 12.096-4.608 3.008-3.072 4.64-7.776 4.896-14.112.128-3.84.192-6.4.192-7.68 0-1.408-.064-3.968-.192-7.68-.256-6.336-1.92-11.04-4.992-14.112-3.008-3.072-7.008-4.608-12-4.608-5.056 0-9.12 1.536-12.192 4.608-3.008 3.072-4.64 7.776-4.896 14.112-.064 1.856-.096 4.416-.096 7.68 0 3.2.032 5.76.096 7.68.256 6.336 1.888 11.04 4.896 14.112 3.072 3.072 7.136 4.608 12.192 4.608zm41.833 25.44c-.64 0-1.184-.224-1.632-.672-.384-.384-.576-.896-.576-1.536v-63.744c0-.64.192-1.152.576-1.536a2.222 2.222 0 011.632-.672h4.416c.64 0 1.152.224 1.536.672.448.384.672.896.672 1.536v4.224c3.584-4.928 8.832-7.392 15.744-7.392 6.72 0 11.744 2.112 15.072 6.336 3.392 4.224 5.216 9.664 5.472 16.32.064.704.096 1.792.096 3.264 0 1.472-.032 2.56-.096 3.264-.256 6.592-2.08 12.032-5.472 16.32-3.392 4.224-8.416 6.336-15.072 6.336-6.656 0-11.84-2.4-15.552-7.2v22.272c0 .64-.192 1.152-.576 1.536-.384.448-.896.672-1.536.672h-4.704zm20.352-25.056c4.544 0 7.84-1.408 9.888-4.224 2.112-2.816 3.264-6.528 3.456-11.136.064-.64.096-1.568.096-2.784 0-12.096-4.48-18.144-13.44-18.144-4.416 0-7.744 1.472-9.984 4.416-2.176 2.88-3.36 6.336-3.552 10.368l-.096 3.648.096 3.744c.128 3.776 1.344 7.072 3.648 9.888 2.304 2.816 5.6 4.224 9.888 4.224zm54.499 7.776c-6.592 0-11.872-2.016-15.84-6.048-3.904-4.096-6.048-9.664-6.432-16.704l-.096-3.264.096-3.168c.448-6.912 2.624-12.416 6.528-16.512 3.968-4.096 9.184-6.144 15.648-6.144 7.104 0 12.608 2.272 16.512 6.816 3.904 4.48 5.856 10.56 5.856 18.24v1.632c0 .64-.224 1.184-.672 1.632-.384.384-.896.576-1.536.576h-33.216v.864c.192 4.16 1.44 7.712 3.744 10.656 2.368 2.88 5.472 4.32 9.312 4.32 2.944 0 5.344-.576 7.2-1.728 1.92-1.216 3.328-2.464 4.224-3.744.576-.768.992-1.216 1.248-1.344.32-.192.864-.288 1.632-.288h4.704c.576 0 1.056.16 1.44.48.384.32.576.768.576 1.344 0 1.408-.896 3.104-2.688 5.088-1.728 1.984-4.192 3.712-7.392 5.184-3.136 1.408-6.752 2.112-10.848 2.112zm13.152-29.568v-.288c0-4.416-1.216-8-3.648-10.752-2.368-2.816-5.568-4.224-9.6-4.224s-7.232 1.408-9.6 4.224c-2.304 2.752-3.456 6.336-3.456 10.752v.288h26.304zM480.187 156c-.64 0-1.184-.192-1.632-.576-.384-.448-.576-.992-.576-1.632v-45.504c0-.64.192-1.152.576-1.536a2.222 2.222 0 011.632-.672h4.512c.64 0 1.152.224 1.536.672.448.384.672.896.672 1.536v4.224c1.856-2.368 4.032-4.192 6.528-5.472 2.56-1.28 5.728-1.92 9.504-1.92 6.144 0 10.912 1.984 14.304 5.952 3.456 3.904 5.184 9.12 5.184 15.648v27.072c0 .64-.224 1.184-.672 1.632-.384.384-.896.576-1.536.576h-4.8c-.64 0-1.184-.192-1.632-.576-.384-.448-.576-.992-.576-1.632V127.2c0-4.544-1.12-8.064-3.36-10.56-2.176-2.496-5.344-3.744-9.504-3.744-4.032 0-7.232 1.28-9.6 3.84-2.368 2.496-3.552 5.984-3.552 10.464v26.592c0 .64-.224 1.184-.672 1.632-.384.384-.896.576-1.536.576h-4.8zm82.998 0c-.64 0-1.184-.192-1.632-.576-.384-.448-.576-.992-.576-1.632V91.104c0-.704.192-1.248.576-1.632a2.222 2.222 0 011.632-.672h24.384c7.232 0 12.928 1.76 17.088 5.28 4.16 3.52 6.24 8.608 6.24 15.264 0 6.656-2.08 11.744-6.24 15.264-4.096 3.456-9.792 5.184-17.088 5.184h-16.992v24c0 .64-.224 1.184-.672 1.632-.448.384-.992.576-1.632.576h-5.088zm23.904-34.272c4.672 0 8.192-1.056 10.56-3.168 2.432-2.112 3.648-5.184 3.648-9.216 0-4.032-1.184-7.104-3.552-9.216-2.368-2.176-5.92-3.264-10.656-3.264h-16.608v24.864h16.608zm47.216 35.232c-3.136 0-6.048-.64-8.736-1.92-2.688-1.28-4.832-3.008-6.432-5.184-1.536-2.24-2.304-4.704-2.304-7.392 0-4.224 1.728-7.68 5.184-10.368 3.52-2.752 8.256-4.544 14.208-5.376l14.304-2.016v-2.784c0-6.528-3.744-9.792-11.232-9.792-2.816 0-5.12.608-6.912 1.824-1.792 1.152-3.136 2.528-4.032 4.128-.192.576-.448.992-.768 1.248-.256.256-.64.384-1.152.384h-4.128a2.293 2.293 0 01-1.536-.576 2.293 2.293 0 01-.576-1.536c.064-1.536.768-3.264 2.112-5.184 1.408-1.984 3.552-3.68 6.432-5.088 2.88-1.472 6.432-2.208 10.656-2.208 7.168 0 12.32 1.696 15.456 5.088 3.136 3.328 4.704 7.488 4.704 12.48v31.104c0 .64-.224 1.184-.672 1.632-.384.384-.896.576-1.536.576h-4.416c-.64 0-1.184-.192-1.632-.576-.384-.448-.576-.992-.576-1.632v-4.128c-1.408 2.048-3.456 3.776-6.144 5.184-2.688 1.408-6.112 2.112-10.272 2.112zm2.016-7.2c4.16 0 7.552-1.344 10.176-4.032 2.688-2.752 4.032-6.688 4.032-11.808v-2.688l-11.136 1.632c-4.544.64-7.968 1.728-10.272 3.264-2.304 1.472-3.456 3.36-3.456 5.664 0 2.56 1.056 4.544 3.168 5.952 2.112 1.344 4.608 2.016 7.488 2.016zm44.738 24.48c-.512 0-.96-.192-1.344-.576-.384-.384-.576-.832-.576-1.344 0-.448.16-1.024.48-1.728l7.392-17.568-18.336-43.296c-.32-.832-.48-1.376-.48-1.632 0-.576.192-1.056.576-1.44.384-.384.864-.576 1.44-.576h4.704c1.024 0 1.792.544 2.304 1.632l14.592 34.944 14.976-34.944c.512-1.088 1.312-1.632 2.4-1.632h4.512c.576 0 1.056.192 1.44.576.384.384.576.832.576 1.344 0 .192-.16.768-.48 1.728l-27.264 62.88c-.512 1.088-1.312 1.632-2.4 1.632h-4.512zM727.5 156c-.64 0-1.184-.192-1.632-.576-.384-.448-.576-.992-.576-1.632v-45.504c0-.64.192-1.152.576-1.536a2.222 2.222 0 011.632-.672h4.32c.64 0 1.152.224 1.536.672.448.384.672.896.672 1.536v3.36c3.328-4.352 7.968-6.528 13.92-6.528 7.104 0 12.128 2.944 15.072 8.832 1.536-2.688 3.712-4.832 6.528-6.432 2.816-1.6 5.984-2.4 9.504-2.4 5.248 0 9.536 1.792 12.864 5.376 3.328 3.584 4.992 8.768 4.992 15.552v27.744c0 .64-.224 1.184-.672 1.632-.384.384-.896.576-1.536.576h-4.512c-.64 0-1.184-.192-1.632-.576-.384-.448-.576-.992-.576-1.632v-26.88c0-4.992-1.056-8.576-3.168-10.752-2.048-2.176-4.768-3.264-8.16-3.264-3.008 0-5.6 1.12-7.777 3.36-2.175 2.176-3.263 5.728-3.263 10.656v26.88c0 .64-.224 1.184-.672 1.632-.384.384-.896.576-1.536.576h-4.512c-.64 0-1.184-.192-1.632-.576-.384-.448-.576-.992-.576-1.632v-26.88c0-4.992-1.088-8.576-3.264-10.752-2.112-2.176-4.8-3.264-8.064-3.264-3.008 0-5.6 1.12-7.776 3.36-2.176 2.176-3.264 5.696-3.264 10.56v26.976c0 .64-.224 1.184-.672 1.632-.384.384-.896.576-1.536.576H727.5zm103.072.96c-6.592 0-11.872-2.016-15.84-6.048-3.904-4.096-6.048-9.664-6.432-16.704l-.096-3.264.096-3.168c.448-6.912 2.624-12.416 6.528-16.512 3.968-4.096 9.184-6.144 15.648-6.144 7.104 0 12.608 2.272 16.512 6.816 3.904 4.48 5.856 10.56 5.856 18.24v1.632c0 .64-.224 1.184-.672 1.632-.384.384-.896.576-1.536.576H817.42v.864c.192 4.16 1.44 7.712 3.744 10.656 2.368 2.88 5.472 4.32 9.312 4.32 2.944 0 5.344-.576 7.2-1.728 1.92-1.216 3.328-2.464 4.224-3.744.576-.768.992-1.216 1.248-1.344.32-.192.864-.288 1.632-.288h4.704c.576 0 1.056.16 1.44.48.384.32.576.768.576 1.344 0 1.408-.896 3.104-2.688 5.088-1.728 1.984-4.192 3.712-7.392 5.184-3.136 1.408-6.752 2.112-10.848 2.112zm13.152-29.568v-.288c0-4.416-1.216-8-3.648-10.752-2.368-2.816-5.568-4.224-9.6-4.224s-7.232 1.408-9.6 4.224c-2.304 2.752-3.456 6.336-3.456 10.752v.288h26.304zM866.531 156c-.64 0-1.184-.192-1.632-.576-.384-.448-.576-.992-.576-1.632v-45.504c0-.64.192-1.152.576-1.536a2.222 2.222 0 011.632-.672h4.512c.64 0 1.152.224 1.536.672.448.384.672.896.672 1.536v4.224c1.856-2.368 4.032-4.192 6.528-5.472 2.56-1.28 5.728-1.92 9.504-1.92 6.144 0 10.912 1.984 14.304 5.952 3.456 3.904 5.184 9.12 5.184 15.648v27.072c0 .64-.224 1.184-.672 1.632-.384.384-.896.576-1.536.576h-4.8c-.64 0-1.184-.192-1.632-.576-.384-.448-.576-.992-.576-1.632V127.2c0-4.544-1.12-8.064-3.36-10.56-2.176-2.496-5.344-3.744-9.504-3.744-4.032 0-7.232 1.28-9.6 3.84-2.368 2.496-3.552 5.984-3.552 10.464v26.592c0 .64-.224 1.184-.672 1.632-.384.384-.896.576-1.536.576h-4.8zm74.842 0c-10.112 0-15.168-5.632-15.168-16.896V113.76h-7.488c-.64 0-1.184-.192-1.632-.576-.384-.448-.576-.992-.576-1.632v-3.264c0-.64.192-1.152.576-1.536a2.222 2.222 0 011.632-.672h7.488V90.048c0-.64.192-1.152.576-1.536a2.222 2.222 0 011.632-.672h4.512c.64 0 1.152.224 1.536.672.448.384.672.896.672 1.536v16.032h11.904c.64 0 1.152.224 1.536.672.448.384.672.896.672 1.536v3.264c0 .64-.224 1.184-.672 1.632-.384.384-.896.576-1.536.576h-11.904v24.672c0 3.2.544 5.632 1.632 7.296 1.088 1.6 2.88 2.4 5.376 2.4h5.856c.64 0 1.152.224 1.536.672.448.384.672.896.672 1.536v3.456c0 .64-.224 1.184-.672 1.632-.384.384-.896.576-1.536.576h-6.624zm35.292.96c-4.48 0-8.256-.704-11.328-2.112-3.008-1.472-5.28-3.136-6.816-4.992-1.472-1.856-2.208-3.392-2.208-4.608 0-.64.224-1.12.672-1.44.512-.384 1.024-.576 1.536-.576h4.32c.64 0 1.216.32 1.728.96 1.536 1.792 3.2 3.2 4.992 4.224 1.792 1.024 4.192 1.536 7.2 1.536 3.328 0 6.016-.64 8.064-1.92 2.112-1.344 3.168-3.168 3.168-5.472 0-1.536-.448-2.784-1.344-3.744-.832-1.024-2.304-1.888-4.416-2.592-2.048-.768-5.12-1.6-9.216-2.496-5.568-1.216-9.536-2.976-11.904-5.28-2.304-2.304-3.456-5.28-3.456-8.928 0-2.432.704-4.736 2.112-6.912 1.472-2.24 3.584-4.032 6.336-5.376 2.816-1.408 6.176-2.112 10.08-2.112 4.096 0 7.584.672 10.464 2.016 2.88 1.344 5.024 2.944 6.432 4.8 1.472 1.792 2.208 3.296 2.208 4.512 0 .576-.224 1.056-.672 1.44-.384.384-.864.576-1.44.576h-4.032c-.768 0-1.408-.32-1.92-.96-1.024-1.216-1.92-2.144-2.688-2.784-.704-.704-1.76-1.312-3.168-1.824-1.344-.512-3.072-.768-5.184-.768-3.072 0-5.44.672-7.104 2.016-1.664 1.28-2.496 2.976-2.496 5.088 0 1.344.352 2.496 1.056 3.456.704.896 2.048 1.728 4.032 2.496 2.048.768 4.992 1.568 8.832 2.4 6.08 1.28 10.368 3.136 12.864 5.568 2.56 2.368 3.84 5.408 3.84 9.12 0 2.752-.8 5.248-2.4 7.488-1.6 2.24-3.968 4-7.104 5.28-3.072 1.28-6.752 1.92-11.04 1.92z" fill="#000"/></svg>